<mxfile host="app.diagrams.net" modified="2021-12-23T21:57:58.721Z" agent="5.0 (X11; Linux x86_64) AppleWebKit/537.36 (KHTML, like Gecko) Chrome/90.0.4430.85 Safari/537.36" etag="R_pwL25EOBDOkMPnsR9P" version="16.0.3" type="github">
  <diagram id="hZx8prxlAFbmcO8pOgQ3" name="Page-1">
    <mxGraphModel dx="558" dy="436" grid="1" gridSize="10" guides="1" tooltips="1" connect="1" arrows="1" fold="1" page="1" pageScale="1" pageWidth="850" pageHeight="1100" math="0" shadow="0">
      <root>
        <mxCell id="0" />
        <mxCell id="1" parent="0" />
        <mxCell id="qiKkZnuHFG8k8qks4Bed-1" value="signal-cli" style="rounded=0;whiteSpace=wrap;html=1;" vertex="1" parent="1">
          <mxGeometry x="80" y="290" width="120" height="60" as="geometry" />
        </mxCell>
        <mxCell id="qiKkZnuHFG8k8qks4Bed-2" value="postgres" style="rounded=0;whiteSpace=wrap;html=1;" vertex="1" parent="1">
          <mxGeometry x="270" y="60" width="120" height="60" as="geometry" />
        </mxCell>
        <mxCell id="qiKkZnuHFG8k8qks4Bed-3" value="fly" style="whiteSpace=wrap;html=1;aspect=fixed;fillColor=none;" vertex="1" parent="1">
          <mxGeometry x="71" y="170" width="190" height="190" as="geometry" />
        </mxCell>
        <mxCell id="qiKkZnuHFG8k8qks4Bed-4" value="awscli, gcloud?" style="rounded=0;whiteSpace=wrap;html=1;fillColor=none;" vertex="1" parent="1">
          <mxGeometry x="90" y="190" width="90" height="40" as="geometry" />
        </mxCell>
        <mxCell id="qiKkZnuHFG8k8qks4Bed-5" value="redis&amp;nbsp; &amp;nbsp; &amp;nbsp; &amp;nbsp; &amp;nbsp; &amp;nbsp;&amp;nbsp;" style="rounded=0;whiteSpace=wrap;html=1;fillColor=none;" vertex="1" parent="1">
          <mxGeometry x="200" y="210" width="120" height="60" as="geometry" />
        </mxCell>
        <mxCell id="qiKkZnuHFG8k8qks4Bed-6" value="gcp" style="rounded=0;whiteSpace=wrap;html=1;fillColor=none;" vertex="1" parent="1">
          <mxGeometry x="360" y="160" width="240" height="190" as="geometry" />
        </mxCell>
        <mxCell id="qiKkZnuHFG8k8qks4Bed-7" value="psycopg, etc" style="rounded=0;whiteSpace=wrap;html=1;fillColor=none;" vertex="1" parent="1">
          <mxGeometry x="370" y="170" width="120" height="60" as="geometry" />
        </mxCell>
        <mxCell id="qiKkZnuHFG8k8qks4Bed-14" value="" style="endArrow=classic;html=1;rounded=0;exitX=0.75;exitY=1;exitDx=0;exitDy=0;entryX=0.25;entryY=0;entryDx=0;entryDy=0;" edge="1" parent="1" source="qiKkZnuHFG8k8qks4Bed-2" target="qiKkZnuHFG8k8qks4Bed-6">
          <mxGeometry width="50" height="50" relative="1" as="geometry">
            <mxPoint x="310" y="220" as="sourcePoint" />
            <mxPoint x="360" y="170" as="targetPoint" />
          </mxGeometry>
        </mxCell>
        <mxCell id="qiKkZnuHFG8k8qks4Bed-15" value="" style="endArrow=classic;html=1;rounded=0;entryX=1;entryY=0.75;entryDx=0;entryDy=0;exitX=0;exitY=0.5;exitDx=0;exitDy=0;" edge="1" parent="1" source="qiKkZnuHFG8k8qks4Bed-6" target="qiKkZnuHFG8k8qks4Bed-3">
          <mxGeometry width="50" height="50" relative="1" as="geometry">
            <mxPoint x="350" y="280" as="sourcePoint" />
            <mxPoint x="400" y="230" as="targetPoint" />
          </mxGeometry>
        </mxCell>
        <mxCell id="qiKkZnuHFG8k8qks4Bed-19" value="" style="endArrow=classic;html=1;rounded=0;entryX=0;entryY=0.5;entryDx=0;entryDy=0;exitX=0.5;exitY=0;exitDx=0;exitDy=0;" edge="1" parent="1" source="qiKkZnuHFG8k8qks4Bed-3" target="qiKkZnuHFG8k8qks4Bed-2">
          <mxGeometry width="50" height="50" relative="1" as="geometry">
            <mxPoint x="220" y="270" as="sourcePoint" />
            <mxPoint x="270" y="220" as="targetPoint" />
          </mxGeometry>
        </mxCell>
      </root>
    </mxGraphModel>
  </diagram>
</mxfile>
